<?xml version="1.0" encoding="UTF-8" standalone="no"?>
<!-- Created with Inkscape (http://www.inkscape.org/) -->

<svg
   xmlns:dc="http://purl.org/dc/elements/1.1/"
   xmlns:cc="http://creativecommons.org/ns#"
   xmlns:rdf="http://www.w3.org/1999/02/22-rdf-syntax-ns#"
   xmlns:svg="http://www.w3.org/2000/svg"
   xmlns="http://www.w3.org/2000/svg"
   version="1.1"
   width="704.18567"
   height="940.63495"
   id="svg2">
  <defs
     id="defs4" />
  <metadata
     id="metadata7">
    <rdf:RDF>
      <cc:Work
         rdf:about="">
        <dc:format>image/svg+xml</dc:format>
        <dc:type
           rdf:resource="http://purl.org/dc/dcmitype/StillImage" />
        <dc:title></dc:title>
      </cc:Work>
    </rdf:RDF>
  </metadata>
  <g
     transform="translate(-26.770575,-21.085494)"
     id="layer1">
    <path
       d="m 173.19605,960.99625 c -23.39841,-2.86717 -36.8247,-7.0194 -45.90437,-14.19645 -20.73081,-16.38678 -26.93455,-52.20192 -14.96267,-86.38187 2.57719,-7.35792 16.15054,-35.13116 14.36554,-29.39418 -2.2177,7.12767 -4.07721,15.59216 -4.76939,21.71024 -2.45316,21.68307 10.43828,32.24445 39.50449,32.36429 15.90533,0.0655 27.10453,-3.43972 47.29985,-14.80463 30.88582,-17.38098 42.33532,-22.41646 65.2867,-28.71305 24.96775,-6.84977 44.30718,-7.83042 67.42713,-3.41904 10.41678,1.98757 24.37752,6.54713 31.78161,10.37986 l 5.29488,2.74089 6.47152,-3.19901 c 20.11805,-9.94478 48.65727,-14.60083 72.22461,-11.78311 13.17119,1.57474 35.70958,7.44988 49.27268,12.84403 10.63189,4.22838 21.69209,9.8216 41.82151,21.14943 20.19533,11.36491 31.39453,14.8702 47.29985,14.80463 21.32185,-0.0879 33.81158,-5.8371 38.3186,-17.63857 2.48286,-6.50128 1.76903,-18.65142 -1.76242,-29.99798 -1.28616,-4.13248 -2.18327,-7.66884 -1.99354,-7.85857 0.99475,-0.99474 15.07644,31.0037 17.19504,39.07309 9.1564,34.87484 -0.74229,69.855 -23.23125,82.09504 -6.46996,3.52139 -18.98993,7.09176 -32.64467,9.30939 -14.05782,2.28311 -60.42511,1.95014 -83.54147,-0.59991 -29.5753,-3.26255 -61.18998,-7.71602 -73.11261,-10.29915 -21.19468,-4.59201 -38.02241,-11.74197 -49.60874,-21.07833 l -6.83754,-5.50976 -4.64234,4.03406 c -19.81836,17.22159 -45.45521,24.00924 -123.48304,32.69357 -19.78822,2.2024 -64.78544,3.18039 -77.06996,1.67509 z m 49.41891,-210.158 c -30.15779,-4.52938 -52.60894,-15.8552 -71.17985,-35.90777 -19.41888,-20.96821 -29.91269,-47.00941 -30.17506,-74.88173 l -0.0995,-10.57736 -3.45034,-0.69006 c -2.56787,-0.51358 -3.91276,-1.79684 -5.25844,-5.01752 -3.28012,-7.8504 -0.006,-15.14467 7.35704,-16.38752 5.19254,-0.87655 6.32169,-1.46335 6.32169,-3.28531 0,-3.25723 6.84169,-18.43755 12.14348,-26.94393 11.34876,-18.20834 27.25594,-32.37254 47.27686,-42.09665 56.07545,-27.2357 122.77132,-4.59117 150.64982,51.14851 3.53744,7.07269 6.43169,13.49273 6.43169,14.26676 0,3.43817 30.53549,5.98696 49.68965,4.14759 22.89228,-2.19835 21.5023,-1.54228 26.20815,-12.37056 13.86166,-31.89628 41.96308,-56.06646 75.64431,-65.06209 9.79771,-2.61679 13.9333,-3.06014 29.07221,-3.11666 18.2795,-0.0682 24.2353,0.91214 39.41745,6.48857 30.87197,11.33933 56.59598,37.69962 68.16368,69.8497 2.31269,6.42765 2.86616,7.08309 6.18071,7.31944 4.66834,0.33291 7.78827,3.18946 8.68103,7.94821 0.97574,5.2012 -2.05464,12.09781 -5.72003,13.01777 -2.77721,0.69703 -2.88016,1.12161 -3.50513,14.45572 -0.79924,17.05203 -3.81822,28.77719 -11.41412,44.33025 -13.51156,27.66575 -37.19387,48.41576 -66.22198,58.0225 -61.65639,20.40496 -128.03112,-14.94023 -145.56773,-77.51622 -1.34801,-4.8101 -2.77565,-12.80732 -3.17253,-17.77159 -0.39689,-4.96427 -1.1215,-9.67298 -1.61027,-10.46381 -0.48876,-0.79084 -3.45807,-1.86011 -6.59846,-2.37617 -6.92611,-1.13817 -40.12072,-1.21428 -47.48053,-0.10884 l -5.29489,0.79527 -0.83454,10.00144 c -3.18113,38.1236 -27.66818,73.84767 -62.70404,91.47868 -18.12128,9.11912 -45.16333,13.97482 -62.95027,11.30341 z m 37.06417,-16.82 c 27.32896,-6.96012 50.47496,-25.49268 63.61598,-50.93607 28.17505,-54.55214 1.31593,-120.45169 -57.20597,-140.35627 -54.57842,-18.56333 -114.64345,14.94818 -128.20863,71.5302 -3.15949,13.17861 -3.15949,33.24195 0,46.42056 9.4317,39.34079 42.09189,69.21744 82.75181,75.69911 9.29449,1.48164 28.53322,0.32007 39.04682,-2.35753 z m 288.27692,0.002 c 33.85932,-8.66766 61.12002,-35.45108 71.32908,-70.08024 2.35532,-7.98925 2.7751,-11.9939 2.7751,-26.47442 0,-14.48051 -0.41978,-18.48516 -2.7751,-26.47441 -12.29748,-41.71268 -48.13511,-70.60049 -90.74364,-73.14568 -42.14074,-2.51724 -82.0416,23.0306 -98.24345,62.90359 -14.03699,34.54526 -5.92779,77.47432 19.76674,104.6425 25.29907,26.75002 62.60794,37.66131 97.89127,28.62911 z M 177.3143,479.63764 C 142.56887,478.51541 124.40191,474.17735 99.460741,461.04712 82.924636,452.34171 70.792366,443.23711 55.456481,428.02438 31.12525,403.88854 26.756513,395.82466 26.770609,375.07556 c 0.0071,-10.12745 0.496731,-13.58128 2.717251,-19.15843 12.200115,-30.64226 41.807026,-32.08397 68.791511,-3.34983 15.246859,16.23544 21.705859,22.04002 28.488219,25.60179 12.7525,6.69699 20.76715,6.23675 29.03435,-1.66729 8.54928,-8.17373 7.97876,0.87608 8.00142,-126.91628 0.0171,-96.35878 0.30069,-116.47603 1.73905,-123.36943 2.2629,-10.84497 10.65258,-27.538895 18.62696,-37.064176 27.99528,-33.439982 88.58038,-57.554453 166.6994,-66.35077 21.68545,-2.441811 37.09866,-2.297249 60.00867,0.562799 76.97791,9.6098 134.64845,33.006966 161.93687,65.69844 8.03414,9.624861 16.41743,26.296287 18.68294,37.153707 1.43837,6.8934 1.72194,27.01065 1.73905,123.36943 0.0228,128.37481 -0.58144,119.13011 8.31118,127.16405 5.17401,4.67441 11.95556,6.90184 17.73016,5.82355 10.36914,-1.93623 20.40152,-9.59696 40.10825,-30.62669 20.66009,-22.0471 45.56027,-26.41089 59.58138,-10.44173 12.98714,14.79155 15.78902,39.15116 6.6061,57.43393 -6.30985,12.56263 -27.09571,34.41377 -46.1116,48.47482 -23.36876,17.27973 -47.80514,27.06472 -78.1659,31.29977 -10.83382,1.51122 -380.83627,2.31795 -423.98157,0.92442 z"
       id="path3050"
       style="fill:#020202" />
  </g>
</svg>
